<?xml version="1.0" standalone="no"?><!DOCTYPE svg PUBLIC "-//W3C//DTD SVG 1.1//EN" "http://www.w3.org/Graphics/SVG/1.1/DTD/svg11.dtd"><svg t="1559555564389" class="icon" style="" viewBox="0 0 1024 1024" version="1.1" xmlns="http://www.w3.org/2000/svg" p-id="4377" xmlns:xlink="http://www.w3.org/1999/xlink" width="32" height="32"><defs><style type="text/css"></style></defs><path d="M864 435.2c-38.4 38.4-86.4 57.6-140.8 57.6l0 0c-51.2 0-102.4-19.2-140.8-57.6-38.4-38.4-57.6-86.4-57.6-140.8 0-54.4 19.2-102.4 57.6-140.8l51.2-51.2 38.4-41.6L774.4 160l-60.8 60.8c-9.6 9.6-16 25.6-16 41.6 0 16 6.4 28.8 16 41.6 9.6 9.6 25.6 16 38.4 16 0 0 0 0 0 0 16 0 28.8-6.4 38.4-16l60.8-60.8 99.2 99.2-38.4 41.6L864 435.2zM854.4 320l-19.2 19.2c-22.4 22.4-51.2 32-80 32l0 0c-28.8 0-57.6-12.8-80-32-22.4-22.4-32-51.2-32-80 0-32 12.8-57.6 32-80L694.4 160l-19.2-19.2L624 192c-25.6 25.6-41.6 64-41.6 99.2 0 38.4 16 73.6 41.6 99.2 25.6 25.6 60.8 41.6 99.2 41.6l0 0c38.4 0 73.6-16 99.2-41.6l51.2-51.2L854.4 320zM544 569.6l-112-112 38.4-41.6 112 112L544 569.6zM172.8 790.4l57.6 0 0 57.6L172.8 848 172.8 790.4zM115.2 819.2c0 22.4 9.6 44.8 25.6 60.8 32 32 86.4 32 118.4 0l211.2-291.2 44.8 32-214.4 297.6c-25.6 25.6-60.8 41.6-99.2 41.6-38.4 0-73.6-16-99.2-41.6-25.6-25.6-41.6-64-41.6-99.2 0-38.4 16-73.6 41.6-99.2l3.2-3.2 291.2-214.4 32 44.8-291.2 211.2C124.8 777.6 115.2 796.8 115.2 819.2zM371.2 400 208 243.2C198.4 246.4 185.6 249.6 172.8 249.6c0 0 0 0 0 0C150.4 249.6 128 243.2 112 227.2L73.6 185.6 192 64l38.4 41.6c16 16 25.6 38.4 25.6 60.8 0 12.8-3.2 25.6-9.6 35.2l163.2 156.8L371.2 400zM192 144 192 144 153.6 185.6C160 192 166.4 195.2 172.8 195.2 179.2 195.2 188.8 192 192 185.6c6.4-6.4 9.6-12.8 9.6-19.2C201.6 156.8 198.4 150.4 192 144zM640 672l38.4-41.6 163.2 169.6-38.4 41.6L640 672zM761.6 883.2c32 32 86.4 32 118.4 0 32-32 32-86.4 0-121.6L704 572.8l38.4-41.6 179.2 188.8c54.4 54.4 54.4 147.2 0 201.6-28.8 28.8-64 41.6-99.2 41.6-35.2 0-73.6-12.8-99.2-41.6L544 732.8l38.4-41.6L761.6 883.2z" p-id="4378" fill="#9ba3af"></path></svg>