<?xml version="1.0" standalone="no"?><!DOCTYPE svg PUBLIC "-//W3C//DTD SVG 1.1//EN" "http://www.w3.org/Graphics/SVG/1.1/DTD/svg11.dtd"><svg t="1559556243556" class="icon" style="" viewBox="0 0 1024 1024" version="1.1" xmlns="http://www.w3.org/2000/svg" p-id="5033" xmlns:xlink="http://www.w3.org/1999/xlink" width="32" height="32"><defs><style type="text/css"></style></defs><path d="M500.351613 605.081055h23.295979a34.918369 34.918369 0 0 1 34.867168 34.918369v162.918253a34.918369 34.918369 0 0 1-34.918368 34.918369h-23.244779a34.918369 34.918369 0 0 1-34.918369-34.918369V639.999424a34.918369 34.918369 0 0 1 34.918369-34.918369z" fill="#727882" p-id="5034"></path><path d="M884.351267 488.70356v419.839622a46.079959 46.079959 0 0 1-46.540758 45.721559H186.188695a46.079959 46.079959 0 0 1-46.540758-45.721559v-419.839622h744.70333m69.836737-69.836737H69.8112v489.573959A115.916696 115.916696 0 0 0 186.188695 1023.999078H837.810509a115.916696 115.916696 0 0 0 116.377495-115.507096V418.918023z" fill="#9ba3af" p-id="5035"></path><path d="M861.106488 418.918023h-69.836737V349.081286c0-156.979059-131.071882-279.295749-279.295749-279.295749-151.807863 0-279.295749 127.436685-279.295749 279.295749v69.836737H162.892716V349.081286C162.892716 158.719857 321.663773 0 511.974002 0c187.955031 0 349.081286 152.268663 349.081286 349.081286z" fill="#9ba3af" p-id="5036"></path></svg>