<?xml version="1.0" standalone="no"?><!DOCTYPE svg PUBLIC "-//W3C//DTD SVG 1.1//EN" "http://www.w3.org/Graphics/SVG/1.1/DTD/svg11.dtd"><svg t="1560410578866" class="icon" style="" viewBox="0 0 1024 1024" version="1.1" xmlns="http://www.w3.org/2000/svg" p-id="3393" xmlns:xlink="http://www.w3.org/1999/xlink" width="200" height="200"><defs><style type="text/css"></style></defs><path d="M972.797296 951.608332l-0.031997-0.031998-75.738296-267.563849c-5.087617-18.430612-24.542152-29.437783-44.156675-25.08611a36.157277 36.157277 0 0 0-22.142332 16.766737 34.461405 34.461405 0 0 0-3.231757 26.68599l61.979332 218.127572-182.898225-37.981139-0.287978-1.023923-25.086111-92.537031a35.837301 35.837301 0 0 0-44.092679-25.086111 36.125279 36.125279 0 0 0-22.04634 16.894728c-4.767641 8.287376-6.015547 17.918651-3.45574 27.069961l17.822658 66.682978-261.260324 80.153964-238.414044-79.162038 0.543959-1.631878 89.209281-257.804584a34.237421 34.237421 0 0 0-3.551732-26.81398 35.965291 35.965291 0 0 0-21.950347-16.446762 36.157277 36.157277 0 0 0-27.101959 3.359747 35.389335 35.389335 0 0 0-16.766737 21.150408L49.570827 887.77314c-4.159687 13.918952 1.72787 29.181802 14.622898 37.981139 3.45574 2.047846 7.487436 4.447665 12.415065 6.047545l272.491478 90.137211 3.551733 0.415969c6.559506 1.631877 12.543055 1.887858 19.51853 0.895932l275.371261-85.337573 279.338962 57.979634c10.015246 2.271829 21.470383 0 29.853752-5.887557a13.310998 13.310998 0 0 0 2.623802-1.72787v-0.287978l5.631576-4.767641c8.255378-9.055318 11.135161-20.606448 7.743417-31.613619z m-477.692024-160.947879c15.038867 10.687195 35.005364 10.6232 49.852246 0.063996 73.850438-52.636036 314.792292-241.613803 314.792292-462.525167 0-180.946372-152.212536-328.167285-339.334444-328.167284S181.080922 147.25291 181.080922 328.167285c-0.639952 212.208018 219.311483 394.114318 313.992353 462.493168z m24.638145-720.265755c148.084847 0 268.523777 115.319315 268.523777 257.100638 0 178.034592-199.248994 331.047068-260.300396 373.699855a13.502983 13.502983 0 0 1-15.838808-0.095993c-61.019404-42.62079-260.204403-195.505276-260.204403-373.63586 0.031998-141.781322 120.150951-257.100637 267.851827-257.100637z m0.671949 408.353246c80.505937 0 146.037002-64.507142 146.037002-143.829168s-65.46707-143.829168-145.941009-143.829167h-1.343899c-38.493101 0-74.778368 14.718891-102.168305 41.468876a142.005305 142.005305 0 0 0-43.324737 102.360291c0 79.290028 65.819043 143.79717 146.740948 143.797171z m0-217.999582c41.116903 0 74.522388 32.957518 74.522388 73.466467s-33.437482 73.466467-74.522388 73.466468c-41.084906 0-74.522388-32.957518-74.522387-73.466468 0-41.180899 32.733535-73.466467 74.522387-73.466467z" p-id="3394" fill="#9ba3af"></path></svg>