<?xml version="1.0" standalone="no"?><!DOCTYPE svg PUBLIC "-//W3C//DTD SVG 1.1//EN" "http://www.w3.org/Graphics/SVG/1.1/DTD/svg11.dtd"><svg t="1559555484463" class="icon" style="" viewBox="0 0 1024 1024" version="1.1" xmlns="http://www.w3.org/2000/svg" p-id="4161" xmlns:xlink="http://www.w3.org/1999/xlink" width="32" height="32"><defs><style type="text/css"></style></defs><path d="M954.427101 954.416708 69.626461 954.416708 69.626461 69.616069l884.80064 0L954.427101 954.416708zM905.261517 118.781653 118.77206 118.781653l0 786.489457 786.489457 0L905.261517 118.781653zM512.016788 512.006396c-122.154492 0-221.205156-110.602578-221.205156-221.205156l-55.301289 0c0 110.602578 123.813331 276.506445 276.506445 276.506445 152.733087 0 276.506445-165.903867 276.506445-276.506445l-55.301289 0C733.221945 401.403817 634.17128 512.006396 512.016788 512.006396zM264.649945 218.112122c-26.041771-0.839412-47.366843 20.48566-46.527431 46.527431 0.759468 23.583492 19.966024 42.810033 43.569501 43.569501 26.041771 0.839412 47.366843-20.48566 46.527431-46.527431C307.459978 238.098131 288.233437 218.87159 264.649945 218.112122zM762.421505 216.073549c-27.220945-0.879384-49.505346 21.405016-48.645948 48.645948 0.79944 24.662736 20.88538 44.748676 45.548116 45.548116 27.220945 0.879384 49.505346-21.405016 48.645948-48.645948C807.170181 236.958929 787.084241 216.872989 762.421505 216.073549z" p-id="4162" fill="#9ba3af"></path></svg>