<?xml version="1.0" standalone="no"?><!DOCTYPE svg PUBLIC "-//W3C//DTD SVG 1.1//EN" "http://www.w3.org/Graphics/SVG/1.1/DTD/svg11.dtd"><svg t="1560413042720" class="icon" style="" viewBox="0 0 1024 1024" version="1.1" xmlns="http://www.w3.org/2000/svg" p-id="6290" xmlns:xlink="http://www.w3.org/1999/xlink" width="200" height="200"><defs><style type="text/css"></style></defs><path d="M518.765 502.717v-181.72h116.17v-61.39h-116.17V131.473c0-9.414 7.659-17.072 17.073-17.072h152.465v-61.39H535.839c-43.264 0-78.464 35.197-78.464 78.462V508.66c-103.546 24.12-180.688 116.986-180.688 227.875 0 129.222 104.753 233.975 233.974 233.975s233.974-104.753 233.974-233.975c0.002-126.505-100.406-229.545-225.87-233.818z m113.933 355.857c-32.597 32.596-75.937 50.548-122.036 50.548s-89.439-17.952-122.037-50.548c-32.598-32.599-50.549-75.937-50.549-122.039 0-46.098 17.953-89.44 50.549-122.035 32.597-32.596 75.936-50.549 122.037-50.549 46.1 0 89.44 17.953 122.036 50.549 32.598 32.596 50.548 75.936 50.548 122.035-0.001 46.101-17.952 89.44-50.548 122.039z" p-id="6291" fill="#9ba3af"></path></svg>