<?xml version="1.0" standalone="no"?><!DOCTYPE svg PUBLIC "-//W3C//DTD SVG 1.1//EN" "http://www.w3.org/Graphics/SVG/1.1/DTD/svg11.dtd"><svg t="1560344997578" class="icon" style="" viewBox="0 0 1024 1024" version="1.1" xmlns="http://www.w3.org/2000/svg" p-id="3392" xmlns:xlink="http://www.w3.org/1999/xlink" width="200" height="200"><defs><style type="text/css"></style></defs><path d="M432.32 770.133333 432.32 770.133333 432.32 600.64l-169.6 0c-90.773333 0-169.6 78.613333-169.6 169.493333s78.826667 169.6 169.6 169.6C353.493333 939.733333 432.32 860.906667 432.32 770.133333M492.906667 770.133333c0 127.146667-102.933333 230.08-230.186667 230.08-127.146667 0-230.08-102.933333-230.08-230.08s102.933333-230.08 230.08-230.08l151.466667 0 78.72 0 0 78.72L492.906667 770.133333M601.92 770.133333 601.92 600.64l169.6 0c90.666667 0 169.386667 72.64 169.386667 169.493333 0 90.88-72.533333 169.6-169.386667 169.6C680.533333 939.733333 601.92 860.906667 601.92 770.133333M541.333333 770.133333c0 127.146667 102.933333 230.08 230.186667 230.08 126.933333 0 230.08-102.933333 230.08-230.08S898.453333 540.053333 771.413333 540.053333l-151.466667 0L541.333333 540.053333l0 78.72L541.333333 770.133333M432.32 261.44l0 169.6-169.6 0c-96.853333 0-169.6-78.72-169.6-169.6 0-96.853333 72.746667-169.6 169.6-169.6C353.493333 91.84 432.32 164.586667 432.32 261.44M492.906667 261.44c0-127.146667-102.933333-230.08-230.186667-230.08-127.146667 0-230.08 102.933333-230.08 230.08s102.933333 230.186667 230.08 230.186667l151.466667 0 78.72 0L492.906667 412.906667 492.906667 261.44M601.92 261.44l0 169.6 169.6 0c90.666667 0 169.386667-72.746667 169.386667-169.6s-72.533333-169.6-169.386667-169.6C680.533333 91.84 601.92 164.586667 601.92 261.44M541.333333 261.44 541.333333 261.44c0-127.146667 102.933333-230.08 230.186667-230.08 126.933333 0 230.08 102.933333 230.08 230.08S898.453333 491.626667 771.413333 491.626667l-151.466667 0L541.333333 491.626667 541.333333 412.906667 541.333333 261.44" p-id="3393" fill="#9ba3af"></path></svg>