<?xml version="1.0" standalone="no"?><!DOCTYPE svg PUBLIC "-//W3C//DTD SVG 1.1//EN" "http://www.w3.org/Graphics/SVG/1.1/DTD/svg11.dtd"><svg t="1660184510064" class="icon" viewBox="0 0 1024 1024" version="1.1" xmlns="http://www.w3.org/2000/svg" p-id="7375" xmlns:xlink="http://www.w3.org/1999/xlink" width="200" height="200"><defs><style type="text/css">@font-face { font-family: feedback-iconfont; src: url("//at.alicdn.com/t/font_1031158_u69w8yhxdu.woff2?t=1630033759944") format("woff2"), url("//at.alicdn.com/t/font_1031158_u69w8yhxdu.woff?t=1630033759944") format("woff"), url("//at.alicdn.com/t/font_1031158_u69w8yhxdu.ttf?t=1630033759944") format("truetype"); }
</style></defs><path d="M932.579556 54.983111H91.448889c-20.224 0-36.579556 16.355556-36.579556 36.579556v841.159111c0 20.195556 16.355556 36.551111 36.579556 36.551111h841.130667c20.252444 0 36.579556-16.327111 36.579555-36.551111V91.562667c0-20.224-16.355556-36.579556-36.579555-36.579556z m-45.710223 832H137.159111V137.272889h749.710222v749.710222z m-571.448889-179.427555v88.007111c0 5.034667 4.152889 9.159111 9.159112 9.159111h54.869333a9.159111 9.159111 0 0 0 9.130667-9.159111v-88.007111a120.604444 120.604444 0 0 1-73.130667 0z m73.159112-226.275556V228.693333a9.159111 9.159111 0 0 0-9.130667-9.102222H324.551111a9.159111 9.159111 0 0 0-9.130667 9.102222v252.586667a120.689778 120.689778 0 0 1 73.130667 0z m-73.130667 226.275556a120.604444 120.604444 0 0 0 73.130667 0 118.897778 118.897778 0 1 0-155.420445-113.152 118.897778 118.897778 0 0 0 82.289778 113.152z m0.113778-132.209778c0.341333-0.682667 0.796444-1.393778 1.137777-2.076445v-0.113777l1.365334-2.048 0.341333-0.568889c0.341333-0.568889 0.796444-1.024 1.137778-1.592889 0.142222-0.113778 0.256-0.341333 0.369778-0.455111 0.568889-0.682667 1.024-1.251556 1.592889-1.848889l0.341333-0.341334 1.365333-1.365333 0.455111-0.455111c0.568889-0.568889 1.137778-1.024 1.848889-1.592889a21.504 21.504 0 0 1 1.934222-1.479111l0.568889-0.341333c0.568889-0.369778 1.024-0.824889 1.592889-1.137778 0.113778-0.142222 0.341333-0.256 0.455111-0.369778 0.682667-0.455111 1.365333-0.796444 2.190223-1.251555 0.113778-0.113778 0.341333-0.113778 0.455111-0.227556 0.568889-0.341333 1.137778-0.568889 1.820444-0.910222l0.682667-0.341334c0.796444-0.341333 1.479111-0.682667 2.275555-0.910222a19.939556 19.939556 0 0 1 2.417778-0.796444c0.227556-0.113778 0.455111-0.113778 0.682667-0.227556a11.719111 11.719111 0 0 1 1.934222-0.483555c0.227556 0 0.341333-0.085333 0.568889-0.085334 0.796444-0.256 1.706667-0.369778 2.531555-0.483555 0.227556 0 0.341333 0 0.568889-0.113778 0.682667-0.113778 1.365333-0.113778 2.048-0.227556h0.682667c0.910222 0 1.706667-0.113778 2.645333-0.113777 0.910222 0 1.706667 0 2.616889 0.113777h0.682667c0.682667 0 1.365333 0.113778 2.048 0.227556 0.227556 0 0.341333 0 0.568889 0.113778 0.824889 0.113778 1.706667 0.227556 2.531555 0.483555 0.227556 0 0.341333 0.085333 0.568889 0.085334l1.934222 0.483555c0.227556 0.113778 0.455111 0.113778 0.682667 0.227556a19.626667 19.626667 0 0 1 2.417778 0.796444c0.796444 0.227556 1.479111 0.568889 2.275555 0.910222l0.682667 0.341334a13.368889 13.368889 0 0 1 1.848889 0.910222c0.113778 0.113778 0.312889 0.113778 0.455111 0.227556a20.536889 20.536889 0 0 1 2.161778 1.251555l0.455111 0.341333c0.568889 0.341333 1.137778 0.682667 1.592889 1.137778 0.227556 0.142222 0.341333 0.256 0.568889 0.369778 0.682667 0.455111 1.365333 1.024 1.962666 1.479111 0.568889 0.455111 1.251556 1.024 1.820445 1.592889l0.455111 0.455111 1.365333 1.365333 0.341334 0.341334c0.568889 0.568889 1.137778 1.28 1.592889 1.848889 0.142222 0.113778 0.227556 0.341333 0.369777 0.455111a8.049778 8.049778 0 0 1 1.137778 1.592889l0.341333 0.568889 1.365334 2.048s0 0.113778 0.113778 0.113777a41.358222 41.358222 0 0 1 1.137777 40.248889c-0.341333 0.682667-0.796444 1.365333-1.137777 2.048 0 0 0 0.113778-0.113778 0.113778l-1.365334 2.048-0.341333 0.568889c-0.341333 0.568889-0.796444 1.052444-1.137778 1.621333-0.142222 0.113778-0.227556 0.341333-0.341333 0.455111-0.568889 0.682667-1.052444 1.251556-1.621333 1.820445l-0.341334 0.341333-1.365333 1.365333-0.455111 0.455112c-0.568889 0.568889-1.137778 1.052444-1.820445 1.621333a22.613333 22.613333 0 0 1-1.962666 1.479111l-0.568889 0.341333c-0.568889 0.341333-1.024 0.796444-1.592889 1.137778l-0.455111 0.341333c-0.682667 0.455111-1.365333 0.796444-2.161778 1.251556-0.142222 0.113778-0.341333 0.113778-0.455111 0.227556-0.568889 0.341333-1.137778 0.568889-1.848889 0.910222l-0.682667 0.369778c-0.796444 0.341333-1.479111 0.682667-2.275555 0.910222-0.796444 0.341333-1.592889 0.568889-2.417778 0.796444-0.227556 0.113778-0.455111 0.113778-0.682667 0.227556a12.003556 12.003556 0 0 1-1.934222 0.455111c-0.227556 0-0.341333 0.113778-0.568889 0.113778-0.796444 0.227556-1.706667 0.341333-2.503111 0.455111-0.256 0-0.369778 0-0.568889 0.113778-0.711111 0.113778-1.393778 0.113778-2.076444 0.227555h-0.682667c-0.910222 0-1.706667 0.113778-2.616889 0.113778-0.938667 0-1.706667 0-2.645333-0.113778h-0.682667a12.629333 12.629333 0 0 1-2.048-0.227555c-0.227556 0-0.341333 0-0.568889-0.113778-0.796444-0.113778-1.706667-0.227556-2.531555-0.455111-0.227556 0-0.341333-0.113778-0.568889-0.113778-0.682667-0.113778-1.365333-0.341333-1.934222-0.455111-0.227556-0.113778-0.455111-0.113778-0.682667-0.227556-0.796444-0.227556-1.592889-0.455111-2.417778-0.796444-0.796444-0.227556-1.479111-0.568889-2.275555-0.910222l-0.682667-0.341334a13.368889 13.368889 0 0 1-1.820444-0.938666c-0.113778-0.113778-0.341333-0.113778-0.455111-0.227556a21.845333 21.845333 0 0 1-2.190223-1.251556l-0.455111-0.341333a8.049778 8.049778 0 0 1-1.592889-1.137778l-0.568889-0.341333c-0.682667-0.455111-1.393778-1.024-1.962666-1.479111a23.04 23.04 0 0 1-1.820445-1.621333l-0.455111-0.455112-1.365333-1.365333-0.341333-0.341333a22.954667 22.954667 0 0 1-1.592889-1.820445l-0.341334-0.455111a8.248889 8.248889 0 0 1-1.137777-1.592889l-0.369778-0.568889-1.365334-2.076444v-0.113778c-0.455111-0.682667-0.796444-1.365333-1.137777-2.048a41.329778 41.329778 0 0 1 0-38.172444zM635.448889 543.004444v252.586667c0 5.006222 4.124444 9.102222 9.130667 9.102222h54.869333a9.159111 9.159111 0 0 0 9.130667-9.102222v-252.586667a120.604444 120.604444 0 0 1-73.130667 0z m73.130667-226.304V228.721778a9.159111 9.159111 0 0 0-9.130667-9.159111H644.551111a9.159111 9.159111 0 0 0-9.130667 9.159111v87.978666a117.191111 117.191111 0 0 1 36.579556-5.688888c12.8 0 25.031111 2.048 36.551111 5.688888zM635.448889 543.004444a120.604444 120.604444 0 0 0 73.130667 0 118.897778 118.897778 0 0 0 82.289777-113.152 118.897778 118.897778 0 1 0-155.420444 113.152z m0.113778-132.238222c0.341333-0.682667 0.796444-1.365333 1.137777-2.048v-0.113778l1.365334-2.076444 0.341333-0.568889c0.341333-0.568889 0.824889-1.024 1.137778-1.592889l0.369778-0.455111c0.568889-0.682667 1.024-1.251556 1.592889-1.820444l0.341333-0.341334 1.365333-1.393777 0.455111-0.455112c0.568889-0.568889 1.137778-1.024 1.820445-1.592888a21.504 21.504 0 0 1 1.962666-1.479112l0.568889-0.341333c0.568889-0.341333 1.024-0.796444 1.592889-1.137778l0.455111-0.341333c0.682667-0.483556 1.365333-0.824889 2.161778-1.28 0.142222-0.113778 0.369778-0.113778 0.483556-0.227556 0.568889-0.341333 1.137778-0.568889 1.820444-0.910222l0.682667-0.341333c0.796444-0.341333 1.479111-0.682667 2.275555-0.910222a19.456 19.456 0 0 1 2.417778-0.796445c0.227556-0.113778 0.455111-0.113778 0.682667-0.227555a12.003556 12.003556 0 0 1 1.934222-0.455111c0.227556 0 0.341333-0.113778 0.568889-0.113778 0.796444-0.227556 1.706667-0.341333 2.531555-0.455111 0.227556 0 0.341333 0 0.568889-0.113778 0.682667-0.113778 1.365333-0.113778 2.048-0.227556h0.682667c0.910222 0 1.706667-0.113778 2.645333-0.113777 0.910222 0 1.706667 0 2.616889 0.113777h0.682667a12.344889 12.344889 0 0 1 2.645333 0.341334c0.796444 0.113778 1.706667 0.227556 2.503111 0.455111 0.227556 0 0.341333 0.113778 0.568889 0.113778 0.682667 0.113778 1.365333 0.341333 1.934222 0.455111 0.227556 0.113778 0.455111 0.113778 0.682667 0.227555a19.143111 19.143111 0 0 1 2.417778 0.796445c0.796444 0.227556 1.479111 0.568889 2.275555 0.910222l0.682667 0.341333c0.568889 0.227556 1.251556 0.568889 1.848889 0.910222 0.085333 0.113778 0.341333 0.113778 0.426667 0.227556a20.536889 20.536889 0 0 1 2.190222 1.28l0.455111 0.341333c0.568889 0.341333 1.137778 0.682667 1.592889 1.137778l0.568889 0.341333c0.682667 0.455111 1.393778 1.024 1.962666 1.479112 0.568889 0.455111 1.251556 1.024 1.820445 1.592888l0.455111 0.455112 1.365333 1.393777 0.341334 0.341334c0.568889 0.568889 1.137778 1.251556 1.592889 1.820444 0.142222 0.113778 0.227556 0.341333 0.341333 0.455111a8.049778 8.049778 0 0 1 1.137778 1.592889c0.142222 0.227556 0.256 0.341333 0.369777 0.568889l1.365334 2.076444v0.113778a41.386667 41.386667 0 0 1 1.137778 40.220445c-0.341333 0.682667-0.796444 1.365333-1.137778 2.048v0.113777l-1.365334 2.076445-0.341333 0.568889c-0.341333 0.568889-0.796444 1.024-1.137778 1.592889-0.142222 0.113778-0.227556 0.341333-0.341333 0.455111-0.568889 0.682667-1.052444 1.251556-1.621333 1.820444l-0.341334 0.341334-1.365333 1.393777-0.455111 0.455111c-0.568889 0.568889-1.137778 1.024-1.820445 1.592889a22.101333 22.101333 0 0 1-1.962666 1.479111l-0.568889 0.341334c-0.568889 0.341333-1.024 0.796444-1.592889 1.137778l-0.455111 0.341333c-0.682667 0.483556-1.365333 0.824889-2.161778 1.28-0.142222 0.113778-0.369778 0.113778-0.483555 0.227555-0.568889 0.341333-1.137778 0.568889-1.820445 0.910223l-0.682667 0.341333c-0.796444 0.341333-1.479111 0.682667-2.275555 0.910222-0.796444 0.341333-1.592889 0.568889-2.417778 0.796445-0.227556 0.113778-0.455111 0.113778-0.682667 0.227555a12.316444 12.316444 0 0 1-1.934222 0.455111c-0.227556 0-0.341333 0.113778-0.568889 0.113778-0.796444 0.227556-1.706667 0.341333-2.503111 0.455111-0.256 0-0.369778 0-0.568889 0.113778-0.711111 0.113778-1.393778 0.113778-2.076444 0.227556h-0.682667c-0.910222 0-1.706667 0.113778-2.645333 0.113777-0.910222 0-1.706667 0-2.616889-0.113777h-0.682667c-0.682667 0-1.365333-0.113778-2.048-0.227556-0.227556 0-0.341333 0-0.568889-0.113778-0.824889-0.113778-1.706667-0.227556-2.531555-0.455111-0.227556 0-0.341333-0.113778-0.568889-0.113778-0.682667-0.113778-1.365333-0.341333-1.934222-0.455111-0.227556-0.113778-0.455111-0.113778-0.682667-0.227555-0.796444-0.227556-1.592889-0.455111-2.417778-0.796445-0.796444-0.227556-1.479111-0.568889-2.275555-0.910222l-0.682667-0.341333a13.710222 13.710222 0 0 1-1.820444-0.910223c-0.113778-0.113778-0.341333-0.113778-0.483556-0.227555a21.845333 21.845333 0 0 1-2.161778-1.28l-0.455111-0.341333a8.049778 8.049778 0 0 1-1.592889-1.137778l-0.568889-0.341334c-0.682667-0.455111-1.393778-1.024-1.962666-1.479111a22.414222 22.414222 0 0 1-1.820445-1.592889l-0.455111-0.455111-1.365333-1.393777-0.341333-0.341334a22.954667 22.954667 0 0 1-1.592889-1.820444l-0.341334-0.455111c-0.483556-0.455111-0.824889-1.024-1.137777-1.592889-0.142222-0.227556-0.256-0.341333-0.369778-0.568889l-1.365334-2.076445v-0.113777c-0.455111-0.682667-0.796444-1.365333-1.137777-2.048a41.329778 41.329778 0 0 1 0-38.172445z" p-id="7376"></path></svg>