<?xml version="1.0" standalone="no"?><!DOCTYPE svg PUBLIC "-//W3C//DTD SVG 1.1//EN" "http://www.w3.org/Graphics/SVG/1.1/DTD/svg11.dtd"><svg t="1659393031671" class="icon" viewBox="0 0 1024 1024" version="1.1" xmlns="http://www.w3.org/2000/svg" p-id="2962" xmlns:xlink="http://www.w3.org/1999/xlink" width="200" height="200"><defs><style type="text/css">@font-face { font-family: feedback-iconfont; src: url("//at.alicdn.com/t/font_1031158_u69w8yhxdu.woff2?t=1630033759944") format("woff2"), url("//at.alicdn.com/t/font_1031158_u69w8yhxdu.woff?t=1630033759944") format("woff"), url("//at.alicdn.com/t/font_1031158_u69w8yhxdu.ttf?t=1630033759944") format("truetype"); }
</style></defs><path d="M735.5 959h-447C165.3 959 65 858.7 65 735.5v-447C65 165.3 165.3 65 288.5 65h447C858.7 65 959 165.3 959 288.5v447C959 858.7 858.7 959 735.5 959z m-447-812.7c-78.4 0-142.2 63.8-142.2 142.2v447c0 78.4 63.8 142.2 142.2 142.2h447c78.4 0 142.2-63.8 142.2-142.2v-447c0-78.4-63.8-142.2-142.2-142.2h-447z" p-id="2963" fill="#9ba3af"></path><path d="M751.2 717.3v0.1l-40.9-41.2c11.7-18.8 18.5-41 18.5-64.8 0-67.9-55.2-122.9-123.3-122.9s-123.3 55.1-123.3 122.9c0 67.9 55.2 122.9 123.3 122.9 25.7 0 49.5-7.8 69.2-21.2l40.2 40.5c4.7 4.7 11.1 7.5 18.2 7.5 14.2 0 25.7-11.4 25.7-25.6-0.1-7.2-3-13.6-7.6-18.2z m-145.7-21c-47.1 0-85.2-38-85.2-84.9s38.1-84.9 85.2-84.9 85.2 38 85.2 84.9-38.2 84.9-85.2 84.9z" p-id="2964" fill="#9ba3af"></path><path d="M453.2 612.5c0-38.7 14.9-73.6 38.6-100.5h-16.6c-11.5 0-21.6-9.8-21.6-20.8s10.2-20.8 21.6-20.8h76.4c16.8-6.4 34.9-10.3 54-10.3 43.1 0 81.9 18.1 109.6 46.9V323.4c0.1-16-13.9-28.2-29.2-28.2H338c-15.2 0-29.2 12.2-29.2 28.2v377.1c0 15.9 12.7 28.2 29.2 28.2h170.1c-33.3-27.9-54.9-69.3-54.9-116.2z m22-240.1H620c11.4 0 21.6 9.8 21.6 20.8 0 11.3-9 20.6-20.3 20.8h-146c-11.5 0-21.6-9.8-21.6-20.8-0.1-11 10.1-20.8 21.5-20.8z m-57.3 133.7c-4.1 3.9-9.5 6-15.1 5.9-11.4 0-21.6-9.8-21.6-20.8s10.2-20.8 21.6-20.8c11.4 0 21.6 9.8 21.6 20.8-0.1 5.6-2.4 11-6.5 14.9z m0-98c-4.1 3.9-9.5 6-15.1 5.9-11.4 0-21.6-9.8-21.6-20.8s10.2-20.8 21.6-20.8 21.6 9.8 21.6 20.8c-0.1 5.7-2.4 11-6.5 14.9z" p-id="2965" fill="#9ba3af"></path></svg>