<?xml version="1.0" standalone="no"?><!DOCTYPE svg PUBLIC "-//W3C//DTD SVG 1.1//EN" "http://www.w3.org/Graphics/SVG/1.1/DTD/svg11.dtd"><svg t="1560410586419" class="icon" style="" viewBox="0 0 1024 1024" version="1.1" xmlns="http://www.w3.org/2000/svg" p-id="3567" xmlns:xlink="http://www.w3.org/1999/xlink" width="200" height="200"><defs><style type="text/css"></style></defs><path d="M890.24 200.96L592 28.8a160 160 0 0 0-160 0L133.76 200.96a160 160 0 0 0-80 138.88v344.32a160 160 0 0 0 80 138.24L432 994.56a160.64 160.64 0 0 0 160 0L890.24 822.4a160.64 160.64 0 0 0 80-138.88V339.84a160.64 160.64 0 0 0-80-138.88z m16 483.2a96 96 0 0 1-48 83.2L560 939.52a96.64 96.64 0 0 1-96 0L165.76 768a96 96 0 0 1-48-83.2V339.84a96 96 0 0 1 48-83.84L464 84.48a96 96 0 0 1 96 0L858.24 256a96.64 96.64 0 0 1 48 83.2z" p-id="3568" fill="#727882"></path><path d="M545.28 328.96v-112A32 32 0 0 0 496.64 192l-156.8 90.24a32 32 0 0 0-16 27.52v408.96a32 32 0 1 0 64 0v-64L479.36 704v102.4a32 32 0 0 0 64 0V704l92.16-55.68v64a32 32 0 0 0 64 0V439.68a32 32 0 0 0-15.36-27.52z m-156.8 256v-87.04l90.88 54.4v78.72z m154.88 44.16V534.4A32 32 0 0 0 528 506.88l-139.52-83.2v-96l92.8-54.4v73.6a32 32 0 0 0 15.36 27.52l138.88 83.2V576z" p-id="3569" fill="#727882"></path></svg>