<?xml version="1.0" standalone="no"?><!DOCTYPE svg PUBLIC "-//W3C//DTD SVG 1.1//EN" "http://www.w3.org/Graphics/SVG/1.1/DTD/svg11.dtd"><svg t="1559746019870" class="icon" style="" viewBox="0 0 1024 1024" version="1.1" xmlns="http://www.w3.org/2000/svg" p-id="3629" xmlns:xlink="http://www.w3.org/1999/xlink" width="32" height="32"><defs><style type="text/css"></style></defs><path d="M512 0c215.808 0 448 65.056 448 208l0 608c0 142.88-232.192 208-448 208-215.776 0-448-65.12-448-208l0-608c0-142.944 232.256-208 448-208zM128 816c0 79.488 171.936 144 384 144 212.096 0 384-64.512 384-144l0-119.552c-66.112 68.128-225.6 103.552-384 103.552s-317.888-35.424-384-103.552l0 119.552zM128 624l0.128 0c0 0.32-0.128 0.672-0.128 0.992 0 79.008 171.936 143.008 384 143.008s384-64 384-143.008c0-0.32-0.128-0.672-0.128-0.992l0.128 0 0-119.552c-66.112 68.128-225.6 103.552-384 103.552s-317.888-35.424-384-103.552l0 119.552zM128 432l0.128 0c0 0.32-0.128 0.672-0.128 0.992 0 79.008 171.936 143.008 384 143.008s384-64 384-143.008c0-0.32-0.128-0.672-0.128-0.992l0.128 0 0-109.952c-83.872 63.904-237.6 93.952-384 93.952s-300.128-30.048-384-93.952l0 109.952zM512 352c212.096 0 384-64.512 384-144 0-79.552-171.904-144-384-144-212.064 0-384 64.448-384 144 0 79.488 171.936 144 384 144zM256 832c0-17.673-14.327-32-32-32s-32 14.327-32 32c0 17.673 14.327 32 32 32s32-14.327 32-32zM256 640c0-17.673-14.327-32-32-32s-32 14.327-32 32c0 17.673 14.327 32 32 32s32-14.327 32-32zM256 448c0-17.673-14.327-32-32-32s-32 14.327-32 32c0 17.673 14.327 32 32 32s32-14.327 32-32z" p-id="3630" fill="#9ba3af"></path></svg>